<svg width="32" height="32" xmlns="http://www.w3.org/2000/svg">

 <g>
  <title>background</title>
  <rect fill="none" id="canvas_background" height="402" width="582" y="-1" x="-1"/>
 </g>
 <g>
  <title>Layer 1</title>
  <polyline id="svg_2" stroke-width="2" stroke-miterlimit="10" stroke-linejoin="round" stroke-linecap="round" stroke="#FFFFFF" points="   649,137.999 675,137.999 675,155.999 661,155.999  " fill="none"/>
  <polyline id="svg_3" stroke-width="2" stroke-miterlimit="10" stroke-linejoin="round" stroke-linecap="round" stroke="#FFFFFF" points="   653,155.999 649,155.999 649,141.999  " fill="none"/>
  <polyline id="svg_4" stroke-width="2" stroke-miterlimit="10" stroke-linejoin="round" stroke-linecap="round" stroke="#FFFFFF" points="   661,156 653,162 653,156  " fill="none"/>
  <path fill="#ffffff" id="svg_7" d="m16,30c-3.74,0 -7.255,-1.456 -9.899,-4.101c-4.322,-4.321 -5.349,-10.874 -2.554,-16.304c0.253,-0.491 0.855,-0.684 1.347,-0.432s0.685,0.855 0.432,1.347c-2.396,4.654 -1.516,10.27 2.189,13.975c2.266,2.267 5.279,3.515 8.485,3.515c3.205,0 6.219,-1.248 8.485,-3.515s3.515,-5.28 3.515,-8.485c0,-3.206 -1.248,-6.219 -3.515,-8.485s-5.279,-3.515 -8.485,-3.515c-3.206,0 -6.219,1.249 -8.485,3.515c-0.391,0.391 -1.023,0.391 -1.414,0s-0.391,-1.023 0,-1.414c2.644,-2.644 6.159,-4.101 9.899,-4.101c3.74,0 7.256,1.457 9.899,4.101c2.645,2.644 4.101,6.159 4.101,9.899c0,3.739 -1.456,7.255 -4.101,9.899c-2.643,2.645 -6.159,4.101 -9.899,4.101z"/>
  <path fill="#ffffff" id="svg_9" d="m20.999,21c-0.219,0 -0.439,-0.071 -0.624,-0.219l-5,-4c-0.237,-0.19 -0.375,-0.477 -0.375,-0.781l0,-8c0,-0.552 0.448,-1 1,-1s1,0.448 1,1l0,7.52l4.625,3.699c0.431,0.346 0.501,0.975 0.156,1.406c-0.198,0.246 -0.488,0.375 -0.782,0.375z"/>
 </g>
</svg>